<?xml version="1.0" encoding="utf-8" ?>
<svg xmlns="http://www.w3.org/2000/svg" xmlns:xlink="http://www.w3.org/1999/xlink" width="400" height="300">
	<path fill="#313030" d="M226.725 66.8486C232.676 68.3399 233.2 83.2883 237.806 87.1349C244.171 92.4509 261.944 67.1844 268.73 67.0162C269.243 67.0035 269.683 67.0981 270.057 67.4539C270.608 67.9776 270.822 68.9634 270.906 69.6942C271.63 75.957 269.112 89.4537 267.537 95.7002C266.693 99.0452 265.251 102.225 264.989 105.695C264.542 111.596 265.472 117.738 266.188 123.597C267.115 131.189 268.02 138.952 267.647 146.61C266.943 161.062 263.136 174.962 261.221 189.235C259.499 202.073 259.955 214.852 260.088 227.767C264.089 227.374 295.066 228.296 297.778 229.96L297.77 230.277C295.548 231.481 286.238 231.524 283.369 231.676C257.264 233.063 231.021 233.051 204.886 233.05C177.932 233.05 150.854 233.033 123.938 231.473C120.983 231.271 115.003 231.409 112.562 230.109L112.635 229.886C115.849 228.418 131.601 228.12 136.207 227.981L147.204 207.785C149.456 203.695 151.62 199.44 154.29 195.608C155.498 193.873 164.091 184.963 164.18 184.147C161.898 183.671 151.557 194.389 139.553 192.886C128.775 191.536 120.146 183.672 113.77 175.407C109.829 170.299 101.118 158.048 102.04 151.585C102.153 150.794 102.434 149.783 103.121 149.309C103.954 148.734 105.384 148.682 106.311 149.073C108.934 150.179 111.564 152.192 114.051 153.645C121.116 157.772 129.225 161.799 137.205 163.585Q138.407 163.864 139.633 164.001Q141.473 164.206 143.298 163.899C153.593 162.086 173.472 141.897 186.922 137.023C190.986 135.55 195.189 135.178 199.485 135.061C205.379 134.899 213.29 136.151 218.474 132.783C220.038 131.767 221.374 130.312 221.781 128.451C222.357 125.82 222.141 117.292 221.679 114.441C221.498 113.324 221.173 112.306 220.669 111.295C219.459 108.869 217.31 106.879 215.865 104.575C213.824 101.321 213.312 97.8536 214.176 94.1188C214.487 92.7755 215.044 91.4553 216.288 90.7299C218.573 89.3976 222.272 90.778 224.608 91.3596C224.749 87.7836 225.002 84.2114 225.063 80.6327C225.127 76.8658 224.688 72.3745 225.575 68.7078C225.769 67.9051 226.153 67.4255 226.725 66.8486ZM182.725 226.995L252.392 227.301C251.752 219.398 251.387 211.493 250.599 203.593C250.408 202.863 250.409 202.367 249.82 201.863C248.948 202.274 248.462 203.687 247.84 204.447C248.731 207.149 248.779 211.483 247.623 214.093C246.167 217.383 243.323 219.403 240.083 220.685C238.623 220.107 236.973 219.48 235.744 218.481C231.465 214.997 236.565 209.495 236.018 205.258C235.783 203.444 234.447 201.673 233.333 200.272C231.33 197.752 222.708 189.306 220.046 188.055C217.97 187.08 215.641 186.684 213.422 186.146C208.441 184.939 204.031 182.91 199.95 179.781C199.217 181.456 198.903 183.326 198.409 185.083Q197.422 188.547 195.973 191.845C194.18 196.028 191.588 199.895 189.535 203.958C185.84 211.27 184.17 218.997 182.725 226.995ZM149.063 227.713C156.602 226.762 165.554 227.503 173.375 227.005C174.055 219.435 175.081 211.879 175.923 204.324C176.208 201.767 176.646 199.169 176.801 196.606L176.51 196.26L175.802 196.29C172.797 196.961 170.19 197.67 167.691 199.588C162.382 203.665 158.968 210.769 155.267 216.281C153.226 219.32 150.993 222.281 149.026 225.356C148.61 226.005 148.178 226.674 148.097 227.456L148.356 227.724L149.063 227.713Z"/>
	<path fill="#FA6E01" d="M138.765 170.313C141.613 170.226 144.43 169.936 147.129 168.973C151.224 167.511 154.868 164.987 158.36 162.451C167.694 155.675 175.894 147.638 187.007 143.692C192.597 141.707 198.396 141.046 204.299 141.347C206.638 141.466 209.142 141.838 211.472 141.683C214.163 141.504 216.807 140.261 219.511 140.025C219.872 139.993 220.662 139.978 220.956 140.181C221.812 140.772 223.984 145.878 225.025 147.271C225.652 148.11 226.483 148.781 227.286 149.445C227.379 150.733 232.444 157.427 233.364 159.712C234.526 162.597 234.955 165.74 234.799 168.832C234.743 169.947 234.427 171.143 234.552 172.245C233.566 174.338 232.615 177.056 232.471 179.371C232.294 182.198 233.992 188.037 232.997 190.254C232.826 190.634 232.638 190.611 232.267 190.739C230.607 190.469 228.874 188.569 227.726 187.385C217.141 176.472 215.767 167.307 216.008 152.728C213.331 157.376 211.562 161.239 211.205 166.685C211.327 168.814 211.97 172.385 210.422 174.109C209.734 174.874 208.731 175.17 207.732 175.199C203.397 175.323 198.009 171.85 194.798 169.126C194.355 168.795 194.064 168.539 193.498 168.511C193.019 169.529 193.541 172.964 193.533 174.265C193.491 181.392 191.033 193.737 185.735 198.832C185.232 199.315 184.658 199.762 183.925 199.719C183.463 199.692 183.066 199.406 182.79 199.041C181.743 197.66 181.3 195.553 180.999 193.874C180.605 191.674 178.307 165.401 178.516 164.173C178.527 164.111 178.54 164.05 178.551 163.989L178.412 163.875L178.389 163.444C177.703 163.609 177.427 164.047 176.941 164.539C169.722 173.533 155.664 185.4 143.749 186.647C137.792 187.27 132.65 185.094 128.148 181.376C123.627 177.642 114.774 168.641 114.337 162.336C114.311 161.956 114.346 161.731 114.55 161.415C115.713 161.019 117.296 161.98 118.372 162.514C125.265 165.938 130.794 169.927 138.765 170.313Z"/>
	<path fill="#FEFEFE" d="M176.941 164.539C169.722 173.533 155.664 185.4 143.749 186.647C137.792 187.27 132.65 185.094 128.148 181.376C123.627 177.642 114.774 168.641 114.337 162.336C114.311 161.956 114.346 161.731 114.55 161.415C115.713 161.019 117.296 161.98 118.372 162.514C125.265 165.938 130.794 169.927 138.765 170.313C136.75 171.574 133.894 171.479 131.485 173.211C130.779 173.718 130.262 174.262 130.119 175.15C130.244 176.115 130.724 176.717 131.422 177.351C133.747 179.461 137.046 180.475 140.11 180.817C150.34 181.962 160.771 176.273 168.732 170.451C170.319 169.29 175.35 164.6 176.941 164.539Z"/>
	<path fill="#FEFEFE" d="M194.798 169.126C196.859 169.328 198.903 170.259 201.019 170.515C205.246 171.025 208.053 169.194 211.205 166.685C211.327 168.814 211.97 172.385 210.422 174.109C209.734 174.874 208.731 175.17 207.732 175.199C203.397 175.323 198.009 171.85 194.798 169.126Z"/>
	<path fill="#FEFEFE" d="M223.076 97.7619C223.494 97.0682 223.837 96.3041 224.202 95.5803C229.973 97.4169 236.548 100.578 240.665 105.161C244.831 109.797 247.69 115.929 250.735 121.335C253.842 126.853 257.437 132.472 259.587 138.448C260.563 141.161 261.162 143.828 261.011 146.73C261.587 153.935 258.608 169.895 256.142 176.788C255.395 178.874 254.39 180.747 253.159 182.586C251.08 180.357 248.725 177.076 247.613 174.257C242.78 169.245 242.041 170.235 235.799 169.706L235.643 169.691L235.317 170.168C235.345 170.982 235.137 171.385 234.698 172.033L234.552 172.245C234.427 171.143 234.743 169.947 234.799 168.832C234.955 165.74 234.526 162.597 233.364 159.712C232.444 157.427 227.379 150.733 227.286 149.445C228.048 146.97 227.831 143.956 227.885 141.376C228.02 135.025 227.708 123.512 228.925 117.918C230.099 117.97 232.93 118.548 233.776 117.855C233.818 115.622 222.874 105.862 221.086 102.789C220.574 101.908 220.049 100.789 220.366 99.7605C220.678 98.7508 222.193 98.2064 223.076 97.7619Z"/>
	<path fill="#FA6E01" d="M247.613 174.257C247.366 172.515 247.154 170.781 247.102 169.02C246.741 156.595 253.662 154.478 261.011 146.73C261.587 153.935 258.608 169.895 256.142 176.788C255.395 178.874 254.39 180.747 253.159 182.586C251.08 180.357 248.725 177.076 247.613 174.257Z"/>
	<path fill="#FA6E01" d="M244.671 98.5745C241.137 96.4958 232.572 96.7405 230.413 94.0342C230.574 93.4865 230.716 93.3835 231.183 93.0655C234.467 90.8271 239.338 90.6576 243.115 91.4071C247.074 92.1925 248.846 95.2015 250.94 98.322C251.987 99.982 252.395 101.975 253.525 103.592C254.948 104.101 256.314 104.712 257.692 105.33C257.839 113.226 260.198 120.762 259.837 128.71C257.378 125.633 249.108 110.933 247.467 107.006C246.299 104.212 246.169 101.295 244.671 98.5745Z"/>
	<path fill="#FEFEFE" d="M250.94 98.322C250.822 91.0911 257.026 83.1166 261.817 78.1822C263.348 76.6055 264.94 75.2186 266.797 74.0328C266.193 79.9773 265.855 89.6618 263.609 94.9389C262.932 96.5289 261.964 97.8288 260.626 98.9182C258.432 100.704 255.783 101.885 253.525 103.592C252.395 101.975 251.987 99.982 250.94 98.322Z"/>
	<path fill="#FEFEFE" d="M247.84 204.447C247.009 202.802 246.674 200.974 245.736 199.273C243.644 195.48 237.454 188.419 237.457 184.216C237.459 182.41 238.384 180.66 239.665 179.425C240.619 178.505 241.875 177.757 243.246 177.843C244.25 177.905 245.107 178.424 245.766 179.158C248.915 182.668 250.926 198.556 250.599 203.593C250.408 202.863 250.409 202.367 249.82 201.863C248.948 202.274 248.462 203.687 247.84 204.447Z"/>
	<path fill="#FA6E01" d="M173.681 181.479C174.313 181.672 174.331 181.68 174.694 182.231C174.948 184.449 174.656 186.407 173.552 188.374C171.355 192.288 166.815 195.234 162.561 196.41C162.217 196.308 161.981 196.102 161.704 195.884C161.339 195.029 161.425 194.31 161.759 193.466C163.309 189.544 169.882 183.174 173.681 181.479Z"/>
	<path fill="#FEFEFE" d="M227.631 72.8564C227.872 72.9772 227.847 72.9466 228.06 73.1323C229.806 74.6509 231.598 87.0605 231.799 89.6591L230.278 90.7296L227.377 92.1844C227.469 85.8326 226.197 79.1219 227.631 72.8564Z"/>
</svg> 