<?xml version="1.0" encoding="utf-8"?>
<!-- Svg Vector Icons : http://www.onlinewebfonts.com/icon -->
<!DOCTYPE svg PUBLIC "-//W3C//DTD SVG 1.1//EN" "http://www.w3.org/Graphics/SVG/1.1/DTD/svg11.dtd">
<svg version="1.1" xmlns="http://www.w3.org/2000/svg" xmlns:xlink="http://www.w3.org/1999/xlink" x="0px" y="0px" viewBox="0 0 1000 1000" enable-background="new 0 0 1000 1000" xml:space="preserve">
<metadata> Svg Vector Icons : http://www.onlinewebfonts.com/icon </metadata>
<g><g transform="translate(0.000000,511.000000) scale(0.100000,-0.100000)"><path d="M1534.6,4958.9c-46.9-27.7-104.4-83.1-127.8-123.6c-42.6-70.3-42.6-108.6-42.6-4727.4v-4655l53.3-78.8c27.7-42.6,87.3-95.9,130-119.3c78.8-44.7,89.5-44.7,3449.2-44.7c3359.7,0,3370.3,0,3449.2,44.7c42.6,23.5,102.3,76.7,130,119.3l53.3,78.8l6.4,3513.1c2.1,2479.8-2.1,3538.7-19.2,3600.4c-19.2,78.8-164,232.2-1165.4,1235.7c-628.5,630.6-1169.6,1161.1-1201.6,1178.1c-49,25.6-400.5,29.8-2343.5,29.8h-2286L1534.6,4958.9z M5912.6,3838.3v-447.4h-274.8c-379.2,0-449.5-29.8-449.5-198.1c0-46.9,17.1-87.3,49-117.2c44.7-42.6,74.6-46.9,355.8-51.1l308.9-6.4V2837v-181.1l-308.9-6.4c-281.2-4.3-311-8.5-355.8-51.1c-53.3-49-66-159.8-27.7-230.1c42.6-81,115-85.2,1429.5-85.2h1276.1V653.3V-976.5H4996.6H2077.9v2631.1v2631.1h1917.4h1917.4V3838.3z M7553.1,2662.3c0-10.7-287.6-17-639.1-17h-639.1v654v656.2l639.1-639.1C7265.5,2964.8,7553.1,2670.8,7553.1,2662.3z M2846.9-1862.8c142.7-66.1,253.5-174.7,321.7-317.4l59.6-127.8v-596.5v-596.5l-59.6-127.8c-68.2-142.8-179-251.4-321.7-315.3c-78.8-36.2-153.4-46.9-389.9-53.3c-323.8-10.7-381.3-2.1-443.1,59.6c-40.5,40.5-42.6,74.6-42.6,1029c0,758.4,6.4,994.9,27.7,1020.5c57.5,74.6,106.5,83.1,430.4,74.6C2697.8-1818,2763.9-1826.6,2846.9-1862.8z M4423.5-1837.2c242.9-55.4,445.3-230.1,532.6-458c42.6-110.8,46.9-157.6,49-609.3c0-466.6-2.1-496.4-51.1-617.8c-68.2-174.7-242.9-347.3-415.4-415.4c-187.5-72.4-404.8-70.3-575.2,8.5c-166.2,74.6-311,219.4-387.7,383.5c-59.6,127.8-59.6,136.3-66,594.4c-8.5,594.4,12.8,688.1,217.3,905.4c130,138.5,330.2,228,524.1,236.5C4280.7-1809.5,4357.4-1820.2,4423.5-1837.2z M6198.1-1869.2c125.7-55.4,219.4-140.6,289.7-266.3c74.6-127.8,78.8-200.2,21.3-274.8c-83.1-106.5-230.1-89.5-294,32c-119.3,223.7-351.5,266.3-490,91.6c-44.7-57.5-46.9-76.7-46.9-619.9v-558.2l55.4-66.1c59.7-72.4,174.7-112.9,268.4-93.7c63.9,12.8,147,85.2,215.2,185.4c85.2,123.6,255.7,108.6,313.2-29.8c25.6-59.6,23.4-76.7-17.1-159.8c-66.1-138.5-164-236.5-298.3-302.5c-249.3-121.4-560.3-57.5-747.8,155.5c-142.7,161.9-151.3,215.2-151.3,871.3c0,647.7,10.7,707.3,140.6,858.6C5644.2-1826.6,5944.6-1756.2,6198.1-1869.2z M7060.9-1858.5c19.2-17,100.1-166.2,183.2-330.2l147-300.4l161.9,315.3c123.6,242.9,172.5,319.6,219.4,340.9c72.4,34.1,149.1,19.2,206.7-38.3c81-81,55.4-170.4-168.3-617.8l-210.9-415.4l210.9-419.7c223.7-447.4,245-526.2,168.3-609.3c-61.8-63.9-132.1-76.7-208.8-38.3c-53.3,27.7-98,98-221.6,343L7393.3-3320l-159.8-315.3c-123.6-242.9-172.6-319.6-219.4-340.9c-72.5-36.2-147-19.2-206.7,42.6c-78.8,85.2-57.5,164.1,164,596.5c112.9,221.6,204.5,415.4,204.5,428.2c0,14.9-91.6,213-204.5,441c-204.5,413.3-234.3,504.9-179,577.3C6858.6-1805.3,6986.4-1790.4,7060.9-1858.5z"/><path d="M3490.3,3518.7c-25.6-10.6-61.8-44.7-83.1-74.6c-34.1-51.1-32-76.7,72.4-613.6c100.1-504.9,115-562.4,164-605c66-57.5,159.8-63.9,221.6-10.6c25.6,19.2,100.1,170.4,170.4,338.7l121.4,304.6l123.6-306.8c66-170.4,134.2-319.6,151.3-332.4c14.9-12.8,61.8-27.7,100.1-36.2c57.5-8.5,85.2,0,129.9,38.4c53.3,46.9,68.2,98,164,581.6c59.6,294,106.5,549.7,106.5,568.8c0,57.5-89.5,144.9-161.9,159.8c-51.1,8.5-78.8,0-125.7-38.4c-49-44.7-66-87.3-106.5-272.7l-44.7-221.6l-91.6,227.9c-104.4,257.8-161.9,323.8-266.3,304.7c-98-19.2-132.1-63.9-215.2-281.2c-42.6-108.7-85.2-204.5-93.7-208.8c-8.5-6.4-34.1,80.9-53.3,189.6c-34.1,174.7-46.9,208.8-102.3,255.7C3605.4,3542.1,3567,3548.5,3490.3,3518.7z"/><path d="M3420,1878.3c-91.6-91.6-72.4-234.3,42.6-291.9c74.6-38.3,3176.5-40.5,3244.6-2.1c106.5,55.4,132.1,183.2,55.4,281.2l-42.6,55.4H5090.3C3498.9,1920.9,3462.6,1920.9,3420,1878.3z"/><path d="M3439.2,1168.8c-98-74.6-106.5-187.5-21.3-272.7l61.8-61.8h1591.4c1683,0,1685.2,0,1723.5,95.9c27.7,74.6,12.8,161.9-40.5,213l-51.1,53.3H5088.2C3852.5,1194.4,3464.8,1190.1,3439.2,1168.8z"/><path d="M3417.9,410.4c-36.2-38.3-61.8-85.2-61.8-119.3c0-34.1,25.6-81,61.8-119.3l61.8-61.8h971.5h969.3l57.5,51.1c44.7,38.3,59.7,68.2,59.7,130c0,61.8-14.9,91.6-59.7,130l-57.5,51.1h-969.3h-971.5L3417.9,410.4z"/><path d="M2333.5-2904.6v-735l144.9,2.1c187.5,0,279.1,34.1,338.8,123.6c46.9,70.3,49,85.2,49,609.3c0,524.1-2.1,539-49,609.3c-59.7,89.5-151.3,123.6-338.8,123.6l-144.9,2.1V-2904.6z"/><path d="M4138-2199.4c-106.5-38.3-181.1-108.6-230.1-215.2c-34.1-72.4-40.5-140.6-40.5-490c0-347.2,6.4-417.5,40.5-490c123.6-274.8,475.1-319.6,656.2-81l59.7,76.7v494.3v494.3l-59.7,76.7C4459.7-2197.3,4289.2-2144,4138-2199.4z"/></g></g>
</svg>