<?xml version="1.0" encoding="utf-8"?>
<!-- Svg Vector Icons : http://www.onlinewebfonts.com/icon -->
<!DOCTYPE svg PUBLIC "-//W3C//DTD SVG 1.1//EN" "http://www.w3.org/Graphics/SVG/1.1/DTD/svg11.dtd">
<svg version="1.1" xmlns="http://www.w3.org/2000/svg" xmlns:xlink="http://www.w3.org/1999/xlink" x="0px" y="0px" viewBox="0 0 1000 1000" enable-background="new 0 0 1000 1000" xml:space="preserve">
<metadata> Svg Vector Icons : http://www.onlinewebfonts.com/icon </metadata>
<g><path d="M867.4,258.5H649.3V40.4L867.4,258.5L867.4,258.5z M622.3,285.5V40.4L132,40.3v429.1h735.5V285.5H622.3L622.3,285.5z M276.7,656.6c-5.2-3.2-11.3-5.3-18.1-6.4c-6.9-1.1-14-1.6-21.4-1.6h-50.2v88.1h50.2c7.4,0,14.6-0.5,21.4-1.6c6.9-1.1,12.9-3.2,18.1-6.4c5.2-3.2,9.4-7.6,12.6-13.4c3.2-5.8,4.7-13.3,4.7-22.7c0-9.3-1.6-16.9-4.7-22.7C286.1,664.2,281.9,659.7,276.7,656.6L276.7,656.6z M10,530.7v429h980v-429H10L10,530.7z M351,727.4c-3.7,11.4-9.6,21.5-17.7,30.3c-8.1,8.8-18.6,15.9-31.5,21.2c-12.9,5.4-28.6,8-46.9,8h-68v105.4h-64.7v-294h132.6c18.4,0,34,2.7,46.9,8c12.9,5.4,23.4,12.4,31.5,21.2c8.1,8.8,14,18.8,17.7,30.1c3.7,11.3,5.6,22.9,5.6,35C356.6,704.4,354.7,716,351,727.4L351,727.4z M636.8,803c-5.5,18.1-13.8,33.8-24.9,47c-11.1,13.2-25,23.5-41.6,31.1c-16.6,7.6-36.2,11.3-58.7,11.3H384.7v-294h126.8c18.9,0,36.6,3,52.9,9.1c16.3,6,30.5,15.1,42.4,27.2c11.9,12.1,21.3,27.2,28,45.3c6.7,18.1,10.1,39.4,10.1,63.8C645,765.1,642.2,784.8,636.8,803L636.8,803z M889.2,652.7H747.2v67.9h123.1v50.2H747.2v121.5h-64.7v-294h206.7L889.2,652.7L889.2,652.7z M561.8,679c-6.6-8.5-15.3-15-26.1-19.6c-10.8-4.5-24.2-6.8-40.2-6.8h-46.1V838H507c9.3,0,18.4-1.5,27.2-4.5c8.8-3,16.6-8,23.5-15c6.9-7,12.4-16.1,16.5-27.4c4.1-11.3,6.2-25,6.2-41.2c0-14.8-1.4-28.2-4.3-40.2C573.1,697.7,568.4,687.5,561.8,679L561.8,679z"/></g>
</svg>