<?xml version="1.0" encoding="utf-8"?>
<!-- Svg Vector Icons : http://www.onlinewebfonts.com/icon -->
<!DOCTYPE svg PUBLIC "-//W3C//DTD SVG 1.1//EN" "http://www.w3.org/Graphics/SVG/1.1/DTD/svg11.dtd">
<svg version="1.1" xmlns="http://www.w3.org/2000/svg" xmlns:xlink="http://www.w3.org/1999/xlink" x="0px" y="0px" viewBox="0 0 1000 1000" enable-background="new 0 0 1000 1000" xml:space="preserve">
<metadata> Svg Vector Icons : http://www.onlinewebfonts.com/icon </metadata>
<g><g><g><path d="M334.9,210c-19.3,12.8-37,24.5-51.6,37.1c-13.7,18.4-22.4,39.6-22.4,67.6c0,57,21.1,90.2,39.5,108.4c-0.5,5.9-1.1,11.8-1.1,17.7c0,117.1,91.7,212.4,204.4,212.4c112.7,0,204.4-95.3,204.4-212.4c0-17.9-2.2-35.3-6.3-52.1c13.1-49,23.5-118.9,3.7-199.9l-9.6,2.5c-1.5,0.4-74.9,20-155.6,61.2c37.7,36.5,88.7,87.2,133,169.9c0.6,6.1,1,12.2,1,18.5c0,98.5-76.6,178.6-170.6,178.6c-94.1,0-170.6-80.1-170.6-178.6c0-5.8,0.5-11.5,1.1-17.2c76.7-177.9,366-253,366-253S714.3,5.4,508.9,10.1c-164,3.8-192.5,134.1-197.4,186.6c3.4-2.3,6.7-4.5,10.2-6.8c35.5-23.5,113.5-79.6,110.9-76.4C432.6,113.6,370.5,186.5,334.9,210z"/><path d="M732,705.4C647.6,862.9,530.3,947.3,448.3,990h290.3c18.7,0,33.8-15.1,33.8-33.8V781.3C772.5,749.7,756.4,721.8,732,705.4z"/><path d="M233.3,781.3v174.9c0,18.7,15.1,33.8,33.8,33.8h87.7c47.6-15.8,227.9-87.6,343-298.4c-5.5-1-11.1-1.7-16.9-1.7H324.8C274.3,689.9,233.3,730.8,233.3,781.3z"/><path d="M793.3,457.4c7.2-5.8,8.3-16.4,2.5-23.6c-5.8-7.3-16.4-8.5-23.7-2.7c-17.7,14.1-41.1,53.5-2.7,101.8c28.8,36.2-16,89.1-16.4,89.6c-6.1,7-5.3,17.7,1.7,23.8c3.2,2.8,7.1,4.1,11.1,4.1c4.7,0,9.4-2,12.8-5.8c2.6-3,63.6-74.6,17.3-132.8C770.2,479.7,789.2,460.9,793.3,457.4z"/><path d="M941.1,457.4c7.2-5.8,8.3-16.4,2.5-23.6c-5.8-7.3-16.5-8.5-23.7-2.7c-17.7,14.1-41.1,53.5-2.7,101.8c28.8,36.2-16,89.1-16.4,89.6c-6.1,7-5.3,17.7,1.7,23.8c3.2,2.8,7.1,4.1,11.1,4.1c4.7,0,9.4-2,12.8-5.8c2.6-3,63.6-74.6,17.3-132.8C918,479.7,937,460.9,941.1,457.4z"/><path d="M221.5,644.7c3.3,3.9,8.1,5.8,12.8,5.8c3.9,0,7.9-1.4,11-4.1c7.1-6.1,7.8-16.8,1.7-23.8c-0.4-0.5-45.2-53.4-16.4-89.6c38.4-48.3,15-87.7-2.7-101.8c-7.3-5.8-17.9-4.6-23.7,2.7c-5.8,7.2-4.6,17.8,2.5,23.6c4.1,3.5,23.1,22.2-2.6,54.5C158,570.1,218.9,641.7,221.5,644.7z"/><path d="M73.7,644.7c3.3,3.9,8.1,5.8,12.8,5.8c3.9,0,7.9-1.4,11-4.1c7.1-6.1,7.8-16.8,1.7-23.8c-0.4-0.5-45.2-53.4-16.4-89.6c38.4-48.3,15-87.7-2.7-101.8c-7.3-5.8-17.9-4.6-23.7,2.7c-5.8,7.2-4.6,17.8,2.5,23.6c4.1,3.5,23.1,22.2-2.6,54.5C10.2,570.1,71.1,641.7,73.7,644.7z"/></g></g><g></g><g></g><g></g><g></g><g></g><g></g><g></g><g></g><g></g><g></g><g></g><g></g><g></g><g></g><g></g></g>
</svg>